ply
format ascii 1.0
comment Created by Blender 2.79 (sub 0) - www.blender.org, source file: 'submarine.blend'
element vertex 114
property float x
property float y
property float z
property float nx
property float ny
property float nz
property float s
property float t
element face 124
property list uchar uint vertex_indices
end_header
0.082443 10.048073 0.111822 0.686209 -0.609943 0.396283 0.967020 0.765522
0.081217 10.070661 0.112529 0.353710 0.707480 0.611835 0.966414 0.775212
0.081217 10.048073 0.112529 0.353526 -0.707053 0.612415 0.966414 0.765522
0.028795 10.048073 0.110407 -0.707083 -0.707083 0.000000 0.809140 0.826039
0.028795 10.070661 0.082263 -0.707083 0.707083 0.000122 0.821213 0.816349
0.028795 10.048073 0.082263 -0.707083 -0.707083 0.000000 0.821213 0.826039
0.054393 10.048073 0.066069 -0.353526 -0.707053 -0.612415 0.864000 0.829404
0.055619 10.070661 0.065361 0.000000 0.609973 -0.792383 0.863385 0.839095
0.055619 10.048073 0.065361 0.000000 -0.609851 -0.792505 0.863385 0.829404
0.030020 10.048073 0.112529 -0.353587 -0.707144 0.612262 0.954341 0.735806
0.028795 10.070661 0.111822 -0.686209 0.609973 0.396191 0.953734 0.745497
0.028795 10.048073 0.111822 -0.686239 -0.609973 0.396161 0.953734 0.735806
0.082443 10.048073 0.080848 0.686239 -0.609973 -0.396191 0.721747 0.992400
0.082443 10.070661 0.082263 0.707083 0.707083 0.000000 0.712066 0.991794
0.082443 10.048073 0.082263 0.707083 -0.707083 0.000000 0.721747 0.991794
0.054393 10.048073 0.126601 -0.353557 -0.707083 0.612354 0.966414 0.735806
0.055619 10.070661 0.127309 0.000000 0.609973 0.792383 0.967020 0.745497
0.054393 10.070661 0.126601 -0.353587 0.707205 0.612201 0.966414 0.745497
0.082443 10.048073 0.080848 0.686239 -0.609973 -0.396191 0.938550 0.720125
0.081217 10.070661 0.080141 0.353679 0.707419 -0.611896 0.928858 0.720731
0.082443 10.070661 0.080848 0.686209 0.609973 -0.396191 0.928858 0.720125
0.030020 10.070661 0.112529 -0.353435 0.706900 0.612629 0.954341 0.745497
0.082443 10.070661 0.110407 0.707083 0.707083 0.000000 0.712066 0.979721
0.082443 10.048073 0.110407 0.707083 -0.707083 0.000000 0.721747 0.979721
0.028795 10.070661 0.111822 -0.686209 0.609973 0.396191 0.808534 0.816349
0.028795 10.070661 0.110407 -0.707083 0.707083 0.000305 0.809140 0.816349
0.028795 10.070661 0.080848 -0.686209 0.609973 -0.396191 0.821819 0.816349
0.028795 10.048073 0.080848 -0.686239 -0.609973 -0.396222 0.821819 0.826039
0.081217 10.048073 0.080141 0.353526 -0.707083 -0.612384 0.938550 0.720731
0.056844 10.070661 0.066069 0.353587 0.707236 -0.612171 0.928858 0.732804
0.030020 10.048073 0.080141 -0.353618 -0.707236 -0.612171 0.876064 0.829404
0.028795 10.070661 0.080848 -0.686209 0.609973 -0.396191 0.876679 0.839095
0.030020 10.070661 0.080141 -0.353679 0.707358 -0.611988 0.876064 0.839095
0.054393 10.070661 0.066069 -0.353587 0.707175 -0.612232 0.864000 0.839095
0.082443 10.070661 0.111822 0.686300 0.610065 0.395917 0.712066 0.979114
0.082443 10.048073 0.111822 0.686209 -0.609943 0.396283 0.721747 0.979114
0.056844 10.048073 0.066069 0.353496 -0.706992 -0.612507 0.938550 0.732804
0.055619 10.070661 0.065361 0.000000 0.609973 -0.792383 0.928858 0.733410
0.055619 10.048073 0.127309 0.000000 -0.609973 0.792383 0.953734 0.765522
0.056844 10.070661 0.126601 0.353587 0.707205 0.612201 0.954341 0.775212
0.055619 10.070661 0.127309 0.000000 0.609973 0.792383 0.953734 0.775212
0.056844 10.048073 0.126601 0.353557 -0.707114 0.612323 0.954341 0.765522
0.055619 10.048073 0.065361 0.000000 -0.609851 -0.792505 0.945316 0.873848
0.055619 10.048073 0.066980 0.000000 -0.999969 -0.000244 0.945316 0.874547
0.054393 10.048073 0.066069 -0.353526 -0.707053 -0.612415 0.944794 0.874151
0.028795 10.048073 0.080848 -0.686239 -0.609973 -0.396222 0.933815 0.880491
0.030197 10.048073 0.081658 0.000000 -1.000000 0.000153 0.934413 0.880836
0.028795 10.048073 0.082263 -0.707083 -0.707083 0.000000 0.933815 0.881097
0.028795 10.048073 0.111822 -0.686239 -0.609973 0.396161 0.933815 0.893776
0.030197 10.048073 0.111012 0.000000 -1.000000 -0.000092 0.934413 0.893431
0.030020 10.048073 0.112529 -0.353587 -0.707144 0.612262 0.934337 0.894080
0.055619 10.048073 0.127309 0.000000 -0.609973 0.792383 0.945316 0.900419
0.055619 10.048073 0.125690 0.000000 -1.000000 -0.000031 0.945316 0.899728
0.056844 10.048073 0.126601 0.353557 -0.707114 0.612323 0.945846 0.900116
0.082443 10.048073 0.111822 0.686209 -0.609943 0.396283 0.956825 0.893776
0.081041 10.048073 0.111012 0.000000 -1.000000 0.000092 0.956219 0.893431
0.082443 10.048073 0.110407 0.707083 -0.707083 0.000000 0.956825 0.893170
0.081217 10.048073 0.080141 0.353526 -0.707083 -0.612384 0.956294 0.880188
0.081041 10.048073 0.081658 0.000000 -1.000000 -0.000031 0.956219 0.880836
0.082443 10.048073 0.080848 0.686239 -0.609973 -0.396191 0.956825 0.880491
0.082443 10.048073 0.082263 0.707083 -0.707083 0.000000 0.956825 0.881097
0.054393 10.070661 0.126601 -0.353587 0.707205 0.612201 0.762002 0.853178
0.055619 10.070661 0.126591 0.000000 1.000000 0.000000 0.761480 0.853169
0.054422 10.070661 0.125900 0.000000 1.000000 -0.000366 0.761993 0.852874
0.081217 10.070661 0.112529 0.353710 0.707480 0.611835 0.750502 0.847141
0.056816 10.070661 0.125900 0.000000 1.000000 -0.000153 0.760966 0.852874
0.056844 10.070661 0.126601 0.353587 0.707205 0.612201 0.760958 0.853178
0.028795 10.070661 0.082263 -0.707083 0.707083 0.000122 0.772989 0.834158
0.029416 10.070661 0.081207 0.000000 0.999969 0.000244 0.772720 0.833704
0.028795 10.070661 0.080848 -0.686209 0.609973 -0.396191 0.772989 0.833553
0.030020 10.070661 0.080141 -0.353679 0.707358 -0.611988 0.772459 0.833249
0.030613 10.070661 0.080516 0.000000 0.999969 0.000519 0.772206 0.833409
0.030020 10.070661 0.112529 -0.353435 0.706900 0.612629 0.772459 0.847141
0.030613 10.070661 0.112154 0.000000 0.999969 0.000305 0.772206 0.846981
0.055619 10.070661 0.127309 0.000000 0.609973 0.792383 0.761480 0.853480
0.081821 10.070661 0.111463 0.000000 0.999969 -0.000549 0.750241 0.846686
0.080624 10.070661 0.112154 0.000000 0.999969 -0.000519 0.750754 0.846981
0.029416 10.070661 0.111463 0.000000 1.000000 0.000000 0.772720 0.846686
0.028795 10.070661 0.111822 -0.686209 0.609973 0.396191 0.772989 0.846837
0.081217 10.070661 0.080141 0.353679 0.707419 -0.611896 0.750502 0.833249
0.056816 10.070661 0.066770 0.000000 1.000000 0.000031 0.760966 0.827508
0.080624 10.070661 0.080516 0.000000 1.000000 0.000366 0.750754 0.833409
0.081821 10.070661 0.081207 0.000000 0.999969 0.000183 0.750241 0.833704
0.082443 10.070661 0.080848 0.686209 0.609973 -0.396191 0.749971 0.833553
0.056844 10.070661 0.066069 0.353587 0.707236 -0.612171 0.760958 0.827212
0.055619 10.070661 0.066079 0.000000 1.000000 -0.000122 0.761480 0.827212
0.082443 10.070661 0.110407 0.707083 0.707083 0.000000 0.749971 0.846232
0.082443 10.070661 0.111822 0.686300 0.610065 0.395917 0.749971 0.846837
0.054393 10.070661 0.066069 -0.353587 0.707175 -0.612232 0.762002 0.827212
0.055619 10.070661 0.065361 0.000000 0.609973 -0.792383 0.761480 0.826910
0.081821 10.070661 0.082589 0.000000 1.000000 0.000000 0.750241 0.834293
0.081821 10.070661 0.110081 0.000000 1.000000 0.000000 0.750241 0.846089
0.054422 10.070661 0.066770 0.000000 1.000000 0.000153 0.761993 0.827508
0.082443 10.070661 0.082263 0.707083 0.707083 0.000000 0.749971 0.834158
0.028795 10.070661 0.110407 -0.707083 0.707083 0.000305 0.772989 0.846232
0.029416 10.070661 0.110081 0.000000 1.000000 0.000122 0.772720 0.846089
0.055619 10.070661 0.068109 0.000000 1.000000 -0.000305 0.761480 0.828088
0.029416 10.070661 0.082589 0.000000 1.000000 0.000000 0.772720 0.834293
0.080063 10.070661 0.082222 0.000000 1.000000 0.000000 0.750990 0.834142
0.031174 10.070661 0.110448 0.000000 1.000000 -0.000153 0.771971 0.846248
0.080063 10.070661 0.110448 0.000000 1.000000 -0.000092 0.750990 0.846248
0.055619 10.070661 0.124561 0.000000 1.000000 0.000092 0.761480 0.852302
0.031174 10.070661 0.082222 0.000000 1.000000 0.000122 0.771971 0.834142
0.082443 10.070661 0.111822 0.686300 0.610065 0.395917 0.967020 0.775212
0.082443 10.070661 0.080848 0.686209 0.609973 -0.396191 0.712066 0.992400
0.055619 10.048073 0.127309 0.000000 -0.609973 0.792383 0.967020 0.735806
0.028795 10.048073 0.111822 -0.686239 -0.609973 0.396161 0.808534 0.826039
0.028795 10.048073 0.080848 -0.686239 -0.609973 -0.396222 0.876679 0.829404
0.055619 10.048073 0.065361 0.000000 -0.609851 -0.792505 0.938550 0.733410
0.056844 10.048073 0.066069 0.353496 -0.706992 -0.612507 0.945846 0.874151
0.030020 10.048073 0.080141 -0.353618 -0.707236 -0.612171 0.934337 0.880188
0.028795 10.048073 0.110407 -0.707083 -0.707083 0.000000 0.933815 0.893170
0.054393 10.048073 0.126601 -0.353557 -0.707083 0.612354 0.944794 0.900116
0.081217 10.048073 0.112529 0.353526 -0.707053 0.612415 0.956294 0.894080
3 0 1 2
3 3 4 5
3 6 7 8
3 9 10 11
3 12 13 14
3 15 16 17
3 18 19 20
3 15 21 9
3 14 22 23
3 3 24 25
3 5 26 27
3 28 29 19
3 30 31 32
3 6 32 33
3 23 34 35
3 36 37 29
3 38 39 40
3 1 41 2
3 42 43 44
3 45 46 47
3 48 49 50
3 51 52 53
3 54 55 56
3 43 57 58
3 58 56 55
3 46 44 43
3 49 47 46
3 52 50 49
3 55 53 52
3 58 59 60
3 61 62 63
3 64 65 66
3 67 68 69
3 70 68 71
3 72 63 73
3 66 62 74
3 64 75 76
3 72 77 78
3 79 80 81
3 79 82 83
3 84 85 80
3 86 75 87
3 88 85 89
3 86 90 91
3 70 92 88
3 93 82 90
3 94 77 95
3 85 96 80
3 94 97 67
3 98 91 90
3 98 82 81
3 77 99 95
3 98 80 96
3 100 75 91
3 62 101 63
3 68 102 71
3 99 63 101
3 96 71 102
3 98 101 100
3 101 76 100
3 99 97 95
3 96 99 98
3 0 103 1
3 3 25 4
3 6 33 7
3 9 21 10
3 12 104 13
3 15 105 16
3 18 28 19
3 15 17 21
3 14 13 22
3 3 106 24
3 5 4 26
3 28 36 29
3 30 107 31
3 6 30 32
3 23 22 34
3 36 108 37
3 38 41 39
3 1 39 41
3 42 109 43
3 45 110 46
3 48 111 49
3 51 112 52
3 54 113 55
3 43 109 57
3 58 60 56
3 46 110 44
3 49 111 47
3 52 112 50
3 55 113 53
3 58 57 59
3 61 74 62
3 64 76 65
3 67 97 68
3 70 69 68
3 72 61 63
3 66 65 62
3 64 87 75
3 72 73 77
3 79 84 80
3 79 81 82
3 84 89 85
3 86 91 75
3 88 92 85
3 86 93 90
3 70 71 92
3 93 83 82
3 94 78 77
3 85 92 96
3 94 95 97
3 98 100 91
3 98 90 82
3 77 73 99
3 98 81 80
3 100 76 75
3 62 65 101
3 68 97 102
3 99 73 63
3 96 92 71
3 98 99 101
3 101 65 76
3 99 102 97
3 96 102 99
